<svg xmlns="http://www.w3.org/2000/svg" xmlns:xlink="http://www.w3.org/1999/xlink" id="Layer_1" x="0px" y="0px" viewBox="0 0 358.2 44.1" style="enable-background:new 0 0 358.2 44.1;" xml:space="preserve"><style type="text/css">	.st0{fill-rule:evenodd;clip-rule:evenodd;fill:#050505;}	.st1{fill:#050505;}</style><path class="st0" d="M23.6,12.3V0.1C10.7,0.5,0.4,10.8,0,23.6h12.2C12.6,17.6,17.5,12.7,23.6,12.3z"></path><path class="st0" d="M23.6,32.7V20.5C10.7,20.9,0.4,31.2,0,44h12.2C12.6,38,17.5,33.1,23.6,32.7z"></path><path class="st1" d="M354.4,29.5c-2.2,2.4-5.3,3.5-9.1,3.5c-3.8,0-6.9-1.2-9.2-3.5c-2.2-2.4-3.4-5.4-3.4-9s1.1-6.6,3.4-9 c2.3-2.4,5.3-3.6,9.2-3.6c3.8,0,6.9,1.2,9.1,3.6c2.3,2.4,3.4,5.3,3.4,9S356.7,27.1,354.4,29.5z M340.1,26c1.3,1.4,3,2.1,5.2,2.1 c2.2,0,3.9-0.7,5.1-2.1c1.3-1.4,1.9-3.2,1.9-5.5s-0.6-4.1-1.9-5.5c-1.2-1.4-2.9-2.1-5.1-2.1c-2.2,0-3.9,0.7-5.2,2.1 c-1.2,1.4-1.8,3.2-1.8,5.5S338.9,24.6,340.1,26z"></path><path class="st1" d="M328.4,28c1.1,0,2-0.1,2.8-0.2v4.9c-1.1,0.2-2.5,0.3-4.1,0.3c-0.9,0-1.7-0.1-2.4-0.2c-0.7-0.1-1.5-0.4-2.4-0.9 c-0.9-0.5-1.6-1.4-2.1-2.6c-0.5-1.2-0.8-2.8-0.8-4.7V13.5h-4V8.9h4V1.7h5.5v7.2h5.4v4.7H325v9.8c0,1.9,0.3,3.2,0.8,3.8 C326.3,27.7,327.2,28,328.4,28z"></path><path class="st1" d="M302.5,7.9c3.4,0,6.2,1.2,8.3,3.6c2.1,2.3,3.1,5.4,3.1,9.3c0,3.8-1.1,6.9-3.3,9.3c-2.2,2.4-5,3.6-8.5,3.6 c-1.6,0-3.1-0.3-4.5-1c-1.4-0.7-2.5-1.7-3.2-2.9V44h-5.6V8.6h5.6v3.3c0.7-1.2,1.8-2.1,3.3-2.8C299.2,8.3,300.8,7.9,302.5,7.9z  M301.3,28.6c2.1,0,3.7-0.7,5.1-2.2c1.3-1.5,2-3.3,2-5.6c0-2.3-0.7-4.1-2-5.6c-1.3-1.5-3-2.2-5.1-2.2c-2.1,0-3.8,0.7-5.2,2.2 c-1.3,1.4-2,3.3-2,5.6c0,2.3,0.7,4.2,2,5.6C297.4,27.8,299.1,28.6,301.3,28.6z"></path><path class="st1" d="M277,7.9h5.6v24.6c0,3.7-1,6.6-3.1,8.7c-2,1.9-4.7,2.8-8.1,2.8c-3.5,0-6.2-0.8-8.2-2.5 c-1.7-1.5-2.6-3.7-2.7-6.3h5.6c0.1,1.4,0.6,2.4,1.3,3.1c0.8,0.7,2,1,3.8,1c1.8,0,3.2-0.6,4.2-1.8c1-1.2,1.5-3,1.5-5.5V29 c-1.5,2.7-4.1,4-7.6,4c-2.8,0-5-0.9-6.5-2.8c-1.5-1.9-2.2-4.4-2.2-7.4V7.9h5.6v13.7c0,4.2,1.7,6.3,5.1,6.3c1.9,0,3.3-0.7,4.2-2 c1-1.4,1.5-3.1,1.5-5.4V7.9z"></path><path class="st1" d="M243.3,33.1V8.3h5.6V13c0.4-1.7,1.2-2.9,2.4-3.8c1.2-0.9,2.5-1.3,3.9-1.3c0.9,0,1.7,0.1,2.2,0.2v5.3 c-0.6-0.1-1.3-0.1-2.2-0.1c-2,0-3.5,0.8-4.7,2.3c-1.1,1.5-1.7,3.6-1.7,6.4v11H243.3z"></path><path class="st1" d="M227.9,33.1c-4,0-7.1-1.1-9.4-3.4c-2.3-2.3-3.4-5.4-3.4-9.1s1.1-6.8,3.4-9.1c2.3-2.3,5.5-3.5,9.4-3.5 c3.5,0,6.4,0.8,8.5,2.5c2.2,1.6,3.4,3.8,3.7,6.6h-6c-0.7-2.8-2.7-4.2-6.2-4.2c-2.1,0-3.8,0.7-5,2c-1.2,1.3-1.8,3.2-1.8,5.6 s0.6,4.3,1.8,5.6c1.2,1.3,2.9,1.9,5,1.9c3.4,0,5.5-1.3,6.2-3.9h6c-0.3,2.7-1.5,4.9-3.7,6.5C234.3,32.2,231.4,33.1,227.9,33.1z"></path><path class="st1" d="M198.6,33.1c-3.7,0-6.7-1.2-8.7-3.5c-2.1-2.4-3.1-5.4-3.1-9c0-3.6,1.1-6.6,3.2-9c2.2-2.4,5.1-3.6,8.7-3.6 c1.6,0,3.1,0.3,4.4,1c1.3,0.7,2.4,1.6,3.1,2.8V8.6h5.6v23.9h-5.6v-3.2c-0.7,1.2-1.8,2.1-3.2,2.8C201.6,32.7,200.1,33.1,198.6,33.1z  M199.4,28.1c2.3,0,4.1-0.7,5.3-2.2c1.2-1.4,1.9-3.2,1.9-5.4s-0.6-4-1.9-5.4c-1.2-1.4-3-2.2-5.3-2.2c-2.2,0-3.9,0.7-5.2,2.2 c-1.2,1.4-1.9,3.2-1.9,5.4s0.6,4,1.9,5.5C195.5,27.4,197.2,28.1,199.4,28.1z"></path><path class="st1" d="M182.4,28c1.1,0,2-0.1,2.8-0.2v4.9c-1.1,0.2-2.5,0.3-4.1,0.3c-0.9,0-1.7-0.1-2.4-0.2c-0.7-0.1-1.5-0.4-2.4-0.9 c-0.9-0.5-1.6-1.4-2.1-2.6c-0.5-1.2-0.8-2.8-0.8-4.7V13.5h-4V8.9h4V1.7h5.5v7.2h5.4v4.7H179v9.8c0,1.9,0.3,3.2,0.8,3.8 C180.4,27.7,181.2,28,182.4,28z"></path><path class="st1" d="M156.5,7.9c3.4,0,6.2,1.2,8.3,3.6c2.1,2.3,3.1,5.4,3.1,9.3c0,3.8-1.1,6.9-3.3,9.3c-2.2,2.4-5,3.6-8.5,3.6 c-1.6,0-3.1-0.3-4.5-1c-1.4-0.7-2.5-1.7-3.2-2.9V44h-5.6V8.6h5.6v3.3c0.7-1.2,1.8-2.1,3.3-2.8C153.2,8.3,154.8,7.9,156.5,7.9z  M155.3,28.6c2.1,0,3.7-0.7,5.1-2.2c1.3-1.5,2-3.3,2-5.6c0-2.3-0.7-4.1-2-5.6c-1.3-1.5-3-2.2-5.1-2.2c-2.1,0-3.9,0.7-5.2,2.2 c-1.3,1.4-2,3.3-2,5.6c0,2.3,0.7,4.2,2,5.6C151.5,27.8,153.2,28.6,155.3,28.6z"></path><path class="st1" d="M100.5,33.1V8.6h5.6V12c0.6-1.2,1.4-2.2,2.6-2.9c1.2-0.8,2.6-1.2,4.1-1.2c3.8,0,6.4,1.5,7.6,4.4 c0.6-1.3,1.6-2.3,2.9-3.1c1.3-0.8,2.8-1.3,4.5-1.3c5.8,0,8.7,3.2,8.7,9.6v15.5h-5.6V18.7c0-3.9-1.5-5.8-4.5-5.8 c-1.6,0-2.8,0.5-3.7,1.6c-0.9,1.1-1.3,2.9-1.3,5.6v13h-5.6V18.6c0-3.9-1.5-5.8-4.4-5.8c-1.6,0-2.9,0.5-3.8,1.6 c-0.9,1.1-1.3,2.9-1.3,5.6v13H100.5z"></path><path class="st1" d="M93.7,29.5c-2.4,2.4-5.6,3.5-9.7,3.5c-4.1,0-7.3-1.2-9.8-3.5c-2.4-2.4-3.6-5.4-3.6-9s1.2-6.6,3.6-9 c2.4-2.4,5.7-3.6,9.8-3.6c4.1,0,7.3,1.2,9.7,3.6c2.4,2.4,3.6,5.3,3.6,9S96.1,27.1,93.7,29.5z M78.5,26c1.3,1.4,3.2,2.1,5.5,2.1 s4.1-0.7,5.4-2.1c1.3-1.4,2-3.2,2-5.5s-0.7-4.1-2-5.5c-1.3-1.4-3.1-2.1-5.4-2.1s-4.1,0.7-5.5,2.1c-1.3,1.4-2,3.2-2,5.5 S77.2,24.6,78.5,26z"></path><path class="st1" d="M57.6,33.1c-3.7,0-6.7-1.1-8.8-3.4c-2.1-2.3-3.2-5.4-3.2-9.1s1.1-6.8,3.2-9.1c2.2-2.3,5.1-3.5,8.8-3.5 c3.3,0,6,0.8,8,2.5c2,1.6,3.2,3.8,3.5,6.6h-5.7c-0.6-2.8-2.6-4.2-5.8-4.2c-2,0-3.6,0.7-4.7,2c-1.1,1.3-1.7,3.2-1.7,5.6 s0.6,4.3,1.7,5.6c1.1,1.3,2.7,1.9,4.7,1.9c3.2,0,5.2-1.3,5.8-3.9h5.7c-0.3,2.7-1.4,4.9-3.5,6.5C63.6,32.2,60.9,33.1,57.6,33.1z"></path></svg>